<?xml version="1.0" standalone="no"?>
<!DOCTYPE svg PUBLIC "-//W3C//DTD SVG 20010904//EN"
 "http://www.w3.org/TR/2001/REC-SVG-20010904/DTD/svg10.dtd">
<svg version="1.0" xmlns="http://www.w3.org/2000/svg"
 width="300.000000pt" height="300.000000pt" viewBox="0 0 300.000000 300.000000"
 preserveAspectRatio="xMidYMid meet">
<metadata>
Created by potrace 1.10, written by Peter Selinger 2001-2011
</metadata>
<g transform="translate(0.000000,300.000000) scale(0.100000,-0.100000)"
fill="#000000" stroke="none">
<path d="M1200 2074 c-151 -47 -283 -93 -292 -101 -16 -14 -18 -39 -18 -230 0
-230 11 -317 55 -425 34 -85 109 -190 185 -262 86 -81 136 -115 252 -172 112
-55 128 -54 249 6 198 99 354 257 424 429 43 106 55 195 55 419 0 185 -2 212
-17 230 -13 15 -101 46 -296 107 -154 47 -289 85 -300 84 -12 0 -146 -38 -297
-85z m433 21 c67 -20 131 -40 142 -44 11 -5 65 -21 120 -37 116 -33 170 -57
179 -79 13 -36 6 -405 -10 -483 -13 -64 -74 -215 -93 -232 -4 -3 -19 -23 -36
-45 -101 -137 -341 -299 -438 -296 -115 3 -350 174 -456 329 -101 149 -121
235 -121 511 0 180 3 209 18 227 17 21 51 34 237 90 50 15 117 36 150 47 63
20 151 44 173 46 7 1 67 -15 135 -34z"/>
<path d="M1459 2049 c-254 -73 -433 -133 -452 -152 -17 -17 -18 -33 -14 -210
5 -215 7 -235 37 -315 60 -159 177 -289 344 -381 114 -62 175 -52 329 53 116
78 173 142 229 257 70 142 71 144 76 375 l4 211 -24 17 c-22 16 -156 63 -208
72 -13 3 -30 10 -37 16 -7 6 -13 8 -13 5 0 -8 -102 23 -117 35 -7 6 -13 8 -13
5 0 -4 -18 0 -40 8 -41 15 -62 15 -101 4z m286 -91 l235 -72 0 -186 c0 -204
-9 -258 -60 -368 -61 -132 -182 -249 -337 -325 l-83 -41 -83 41 c-157 78 -271
189 -337 328 -52 110 -60 158 -60 369 l0 183 233 71 c127 39 238 71 245 71 7
1 118 -31 247 -71z"/>
<path d="M1593 1608 l-163 -162 -84 82 c-46 45 -91 82 -100 82 -22 0 -66 -44
-66 -67 0 -27 221 -243 250 -243 18 0 73 49 212 187 167 166 188 191 188 220
0 33 -28 63 -59 63 -8 0 -88 -73 -178 -162z m191 116 c9 -3 16 -12 16 -19 0
-21 -352 -365 -373 -365 -19 0 -180 149 -199 184 -7 13 -6 22 5 33 18 19 27
14 116 -70 34 -31 66 -57 72 -57 25 0 63 31 195 161 77 77 143 139 146 139 4
0 13 -3 22 -6z"/>
</g>
</svg>
